<svg id="Capa_1" enable-background="new 0 0 510.006 510.006" height="512" viewBox="0 0 510.006 510.006" width="512" xmlns="http://www.w3.org/2000/svg"><g><path d="m358.013 195.006h-86.02l-15 105h-78.651l-17.663-150.139c19.615 1.123 38.347-5.438 52.734-17.596 15.823 4.672 33.546 3.447 49.09-4.293 13.065 6.506 27.732 8.46 41.675 6.011 8.546 7.977 19.145 13.22 30.66 15.167 12.282 35.861 46.431 60.85 85.165 60.85 49.626 0 90-40.374 90-90 0-68.053-72.568-110.662-131.559-79.835-8.802-5.939-19.001-9.408-29.755-10.055-18.865-28.243-55.86-38.186-86.186-23.083-19.668-9.795-43.38-9.41-62.813 1.471-37.8-19.808-85.844-3.914-103.44 36.502h-34.586l-30 255h-31.661v210h510v-210h-136.991zm-60 30h33.98l10.715 75h-55.41zm-106.77-186.543 9.18 6.608c5.782-3.694 14.377-15.065 32.08-15.065 16.082 0 24.297 9.464 30 12.717l8.584-5.989c19.049-13.294 45.551-6.123 55.396 14.906l4.548 9.715c10.232-1.069 11.31-1.349 13.972-1.349 17.328 0 24.533 13.363 30.297 18.053 6.617-3.691 19.803-18.053 44.703-18.053 33.084 0 60 26.916 60 60s-26.916 60-60 60c-28.439 0-53.169-20.193-58.803-48.015l-2.518-12.437-12.988.433c-19.814.756-27.64-17.127-31.071-20.349-7.9 2.349-13.093 5.368-22.12 5.368-16.082 0-24.297-9.464-30-12.717-3.446 1.474-21.515 20.882-46.186 9.055l-10.184-4.883c-2.392 1.2-17.651 28.455-49.051 22.839l-8.74-74.294h-16.899c15.174-16.951 40.949-20.111 59.8-6.543zm-69.579 36.543 17.648 150h-68.617l17.648-150zm-54.499 180h75.676l5.294 45h-86.264zm-37.162 225v-30h450v30zm390-60h-30v-30h30zm-60 0h-30v-30h30zm-60 0h-30v-30h30zm-60 0h-30v-30h30zm-60 0h-30v-30h30zm-60 0h-30v-30h30zm360-90v90h-30v-60c-96.072 0-274.948 0-390 0v60h-30v-90z"/></g></svg>