<svg clip-rule="evenodd" fill-rule="evenodd" height="512" stroke-linejoin="round" stroke-miterlimit="2" viewBox="0 0 32 32" width="512" xmlns="http://www.w3.org/2000/svg"><g transform="translate(-73.003 -155.432)"><path d="m77.003 183.432v-25c0-.552.447-1 1-1h12c.552 0 1 .448 1 1v5h9c.552 0 1 .448 1 1v19h1c.551 0 1 .448 1 1s-.449 1-1 1h-26c-.552 0-1-.448-1-1s.448-1 1-1zm12 0v-24h-10v24h1.997v-5c0-.552.448-1 1-1h4c.552 0 1 .448 1 1v5zm-6.003-4v4h2v-4zm8.003-14v18h8v-18zm2.997 16h2c.552 0 1-.448 1-1s-.448-1-1-1h-2c-.552 0-1 .448-1 1s.448 1 1 1zm0-4h2c.552 0 1-.448 1-1s-.448-1-1-1h-2c-.552 0-1 .448-1 1s.448 1 1 1zm-12-2h4c.552 0 1-.448 1-1s-.448-1-1-1h-4c-.552 0-1 .448-1 1s.448 1 1 1zm12-2h2c.552 0 1-.448 1-1s-.448-1-1-1h-2c-.552 0-1 .448-1 1s.448 1 1 1zm-12-2h4c.552 0 1-.448 1-1s-.448-1-1-1h-4c-.552 0-1 .448-1 1s.448 1 1 1zm12-2h2c.552 0 1-.448 1-1s-.448-1-1-1h-2c-.552 0-1 .448-1 1s.448 1 1 1zm-12-2h4c.552 0 1-.448 1-1s-.448-1-1-1h-4c-.552 0-1 .448-1 1s.448 1 1 1zm4-6c.552 0 1 .448 1 1s-.448 1-1 1h-4-.035l-.031-.002-.032-.003-.031-.003-.032-.005-.03-.005-.037-.008-.034-.009-.035-.01-.035-.011-.029-.011-.028-.012-.028-.012-.027-.013-.027-.014-.027-.014-.026-.016-.025-.016-.025-.017-.024-.018-.024-.018-.028-.023-.027-.024-.026-.025-.025-.025-.026-.029-.023-.027-.022-.029-.021-.029-.017-.024-.016-.026-.015-.026-.015-.026-.014-.027-.015-.033-.015-.034-.013-.035-.011-.032-.011-.035-.008-.03-.007-.03-.006-.031-.005-.031-.005-.031-.003-.031-.002-.032-.002-.032v-.035l.001-.032.002-.031.002-.031.002-.018c.06-.495.482-.879.993-.879z"/></g></svg>