<svg id="Layer_1" enable-background="new 0 0 468.01 468.01" height="512" viewBox="0 0 468.01 468.01" width="512" xmlns="http://www.w3.org/2000/svg"><g><g><path d="m370.521 368.889c-36.265 0-65.769-29.503-65.769-65.768s29.504-65.769 65.769-65.769 65.769 29.504 65.769 65.769-29.505 65.768-65.769 65.768zm0-101.536c-19.723 0-35.769 16.046-35.769 35.769s16.046 35.768 35.769 35.768 35.769-16.045 35.769-35.768-16.047-35.769-35.769-35.769z"/><path d="m433.101 468.005h-125.161c-19.396 0-35.177-15.66-35.177-34.909v-32.813c0-16.36 4.152-32.552 12.007-46.826l26.283 14.465c-5.424 9.854-8.29 21.045-8.29 32.361v32.813c0 2.615 2.419 4.909 5.177 4.909h125.16c2.707 0 4.909-2.202 4.909-4.909v-32.813c0-12.777-3.595-25.21-10.395-35.955l25.35-16.043c9.843 15.551 15.045 33.532 15.045 51.998v32.813c.001 19.249-15.659 34.909-34.908 34.909z"/></g><g><path d="m97.757 368.889c-36.265 0-65.769-29.503-65.769-65.768s29.504-65.769 65.769-65.769 65.769 29.504 65.769 65.769-29.505 65.768-65.769 65.768zm0-101.536c-19.723 0-35.769 16.046-35.769 35.769s16.046 35.768 35.769 35.768 35.769-16.045 35.769-35.768-16.047-35.769-35.769-35.769z"/><path d="m160.337 468.005h-125.16c-19.397 0-35.177-15.66-35.177-34.909v-32.813c0-16.36 4.152-32.552 12.007-46.826l26.283 14.465c-5.424 9.854-8.29 21.045-8.29 32.361v32.813c0 2.615 2.419 4.909 5.177 4.909h125.16c2.707 0 4.909-2.202 4.909-4.909v-32.813c0-12.777-3.595-25.21-10.395-35.955l25.35-16.043c9.843 15.551 15.045 33.532 15.045 51.998v32.813c0 19.249-15.66 34.909-34.909 34.909z"/></g><g><path d="m364.323 176.29-44.718-33.799c-.812-.614-1.896-.995-2.831-.995h-103.236c-18.941 0-34.352-15.346-34.352-34.208v-72.892c0-18.963 15.41-34.391 34.352-34.391h140.126c19.136 0 34.704 15.428 34.704 34.391v129.928c0 17.348-17.981 18.681-24.045 11.966zm-150.785-146.285c-2.44 0-4.352 1.929-4.352 4.391v72.893c0 2.399 1.871 4.208 4.352 4.208h103.236c7.466 0 14.896 2.508 20.921 7.063l20.673 15.625v-99.789c0-2.339-2.198-4.391-4.704-4.391z"/><path d="m79.642 211.811v-129.416c0-19.083 15.533-34.607 34.627-34.607h39.918v30h-39.918c-2.422 0-4.627 2.196-4.627 4.607v99.315l20.51-15.468c5.936-4.487 13.35-6.965 20.861-6.965h102.829v30h-102.829c-.978 0-2.044.347-2.783.906l-44.556 33.603c-2.653 2.001-22.002 6.886-24.032-11.975z"/><path d="m239.978 56.746h87.6v30h-87.6z"/></g></g></svg>