<svg id="Capa_1" enable-background="new 0 0 512.009 512.009" height="512" viewBox="0 0 512.009 512.009" width="512" xmlns="http://www.w3.org/2000/svg"><g><path d="m497 257.51c-10.569 0-247.37 0-258 0v-97c0-8.284-6.716-15-15-15h-160c-8.284 0-15 6.716-15 15v97h-34c-8.284 0-15 6.716-15 15v112c0 8.284 6.716 15 15 15h66v82h-66c-8.284 0-15 6.716-15 15s6.716 15 15 15h482c8.284 0 15-6.716 15-15s-6.716-15-15-15h-66v-82h66c8.284 0 15-6.716 15-15v-112c0-8.285-6.716-15-15-15zm-176 112c-15.711 0-114.185 0-130 0v-82h130zm-242-194h130v82c-28.074 0-96.897 0-130 0zm-49 194v-82h131v82c-15.872 0-114.955 0-131 0zm81 30h130v82h-130zm290 82h-130v-82h130zm-50-112v-82h131v82c-16.048 0-115.135 0-131 0z"/><path d="m331.561 223.562c8.184 0 16.41-2.339 23.587-7.124l53.173-35.448c7.859-5.238 8.987-16.386 2.286-23.087l-17.394-17.394 22.621-22.62c17.834 8.827 39.678 5.577 54.116-8.861 28.209-28.21 28.284-28.384 28.284-28.284 18.445-18.445 18.288-48.181.001-66.468-18.369-18.369-48.1-18.37-66.468 0l-28.286 28.284c-14.82 14.82-17.516 36.756-8.876 54.131l-22.605 22.606-17.394-17.394c-6.701-6.706-17.851-5.569-23.087 2.286l-35.448 53.173c-18.757 28.135 1.326 66.2 35.49 66.2zm93.133-159.789 28.286-28.284c3.21-3.211 7.479-4.979 12.02-4.979 15.19 0 22.634 18.409 12.021 29.02 0 .1 1.516-1.515-28.284 28.286-6.623 6.62-17.391 6.626-24.021.019-6.414-6.392-6.857-17.226-.022-24.062zm-103.662 110.23 25.299-37.948 30.124 30.124-37.949 25.299c-4.979 3.319-11.666 2.659-15.899-1.574s-4.895-10.921-1.575-15.901z"/></g></svg>