<svg id="Capa_1" enable-background="new 0 0 512 512" height="512" viewBox="0 0 512 512" width="512" xmlns="http://www.w3.org/2000/svg"><g><path d="m508.444 292.066-36.822-183.914c-5.365-26.798.687-54.908 16.604-77.123l22.101-30.842h-252.738l22.101 30.842c15.918 22.214 21.971 50.325 16.587 77.216l-14.788 76.361c-7.329 1.048-15.306 1.692-23.636 1.567-17.949-.318-35.778 5.766-47.844 19.266-22.748 25.452-20.35 51.611-20.261 53.037l-176.573 176.572c-8.496 8.496-13.175 19.791-13.175 31.805.001 12.015 4.68 23.311 13.176 31.806 8.768 8.769 20.287 13.153 31.805 13.153s23.037-4.384 31.805-13.153l176.395-176.395c.766.052 1.552.086 2.364.086.142 0 .292-.012.436-.014-1.363 41.072 11.011 81.168 35.752 114.713l20.938 28.388h142.575l20.938-28.388c30.635-41.534 42.392-94.379 32.26-144.983zm-26.608 42.337-44.182 24.703-53.703-30.026-53.696 30.026-44.229-24.732c-.251-6.436-.098-12.919.469-19.417 14.765-6.162 26.962-15.693 36.403-28.545 15.126-20.591 20.076-45.86 21.237-66.047h119.331l15.535 77.595c2.42 12.084 3.342 24.319 2.835 36.443zm-28.133-304.188c-12.005 23.671-16.511 50.716-12.671 77.132h-114.145c3.84-26.415-.667-53.461-12.672-77.132zm-132.483 107.158h125.631l10.604 52.967h-114.085c-.348-3.104-4.009-24.624-4.009-24.624s-20.741 9.385-25.786 11.132zm-90.145 89.462c7.125-7.014 16.479-10.766 26.31-10.639 22.578.348 42.906-3.973 56.944-8.084.193 16.916-2.177 42.211-15.63 60.525-9.799 13.339-23.895 21.088-43.065 23.685-.115.01-.28.004-.464-.01l-35.444-35.444c-.062-.889-.103-1.781-.103-2.674.001-10.373 4.068-20.088 11.452-27.359zm-175.52 250.592c-5.83 5.831-15.317 5.831-21.149 0-8.925-8.925-2.824-18.323 0-21.147l134.842-134.841 21.147 21.148zm156.073-156.073-21.147-21.148 15.061-15.061 21.148 21.147zm240.393 97.871-11.938 16.185h-112.249l-11.936-16.184c-10.623-14.403-18.519-30.25-23.539-46.909l37.896 21.191 53.696-30.027 53.703 30.027 37.775-21.121c-5.022 16.686-12.879 32.562-23.408 46.838z"/></g></svg>