<svg id="Capa_1" enable-background="new 0 0 512 512" height="512" viewBox="0 0 512 512" width="512" xmlns="http://www.w3.org/2000/svg"><g><path d="m497 213.305h-19.524c5.625-13.908 8.573-28.89 8.573-43.988 0-29.62-11.091-57.898-31.229-79.624-18.269-19.71-42.478-32.438-68.821-36.343-14.697-31.478-46.684-53.35-83.696-53.35-29.389 0-56.382 13.601-73.774 36.777l-213.529.001c-8.284 0-15 6.716-15 15 0 52.802 43.02 95.76 95.897 95.76h132.631c6.384 8.508 14.066 15.719 22.681 21.447 0 .111-.005.221-.005.332 0 15.549 3.055 30.398 8.584 43.988h-16.488c-8.284 0-15 6.716-15 15v268.695c0 8.284 6.716 15 15 15h253.7c8.284 0 15-6.716 15-15v-268.695c0-8.284-6.716-15-15-15zm-247.79-88.639c-2.731-4.431-7.564-7.128-12.769-7.128h-140.544c-31.166 0-57.349-21.704-64.168-50.761h204.712c5.204 0 10.037-2.697 12.769-7.128 11.446-18.565 31.294-29.649 53.093-29.649 34.347 0 62.29 27.884 62.29 62.158s-27.943 62.158-62.29 62.158c-6.647 0-13.111-1.036-19.212-2.995 3.891-18.415 13.685-35.258 28.169-47.842 6.254-5.433 6.919-14.907 1.485-21.161-5.432-6.252-14.907-6.92-21.16-1.485-16.6 14.421-28.613 33.011-35.032 53.528-2.718-2.949-5.181-6.188-7.343-9.695zm32.939 57.456c6.526 1.44 13.273 2.195 20.154 2.195 50.889 0 92.29-41.342 92.29-92.158 0-2.092-.077-4.167-.215-6.224 14.594 4.48 27.856 12.734 38.441 24.152 14.98 16.162 23.23 37.197 23.23 59.23 0 14.524-3.644 28.898-10.537 41.568-.428.787-.764 1.599-1.04 2.42h-151.315c-5.532-9.417-9.346-19.955-11.008-31.183zm199.851 299.878h-223.7v-238.695h19.309c21.549 26.381 54.345 43.259 91.018 43.259 8.284 0 15-6.716 15-15s-6.716-15-15-15c-16.982 0-32.845-4.863-46.275-13.259h159.648z"/><path d="m409.592 307.421c-8.284 0-15 6.716-15 15v40.041h-48.884v-40.041c0-8.284-6.716-15-15-15s-15 6.716-15 15v113.992c0 8.284 6.716 15 15 15s15-6.716 15-15v-43.951h48.884v43.951c0 8.284 6.716 15 15 15s15-6.716 15-15v-113.992c0-8.284-6.716-15-15-15z"/></g></svg>