<svg height="511pt" viewBox="1 -48 511.99899 511" width="511pt" xmlns="http://www.w3.org/2000/svg"><path d="m496.804688 159.269531h-10.257813l7.570313-51.472656c.640624-4.367187-.648438-8.800781-3.53125-12.140625-2.886719-3.34375-7.085938-5.261719-11.5-5.261719h-60.679688c-4.414062 0-8.613281 1.917969-11.5 5.261719-2.886719 3.339844-4.175781 7.773438-3.53125 12.140625l7.570312 51.472656h-59.480468v-95.652343c0-34.804688-28.316406-63.117188-63.121094-63.117188h-51.019531c-34.804688 0-63.117188 28.3125-63.117188 63.117188v95.652343h-123.972656l26.035156-64.375c.863281.152344 1.742188.246094 2.648438.246094h64.253906c8.390625 0 15.191406-6.804687 15.191406-15.195313v-32.125c0-26.09375-21.226562-47.320312-47.320312-47.320312-24.992188 0-45.507813 19.480469-47.191407 44.054688l-46.394531 114.714843h-2.261719c-8.394531 0-15.195312 6.804688-15.195312 15.195313v225.875c0 8.390625 6.800781 15.195312 15.195312 15.195312 8.390626 0 15.191407-6.804687 15.191407-15.195312v-155.984375h144.519531c-.457031 2.335937-.703125 4.746093-.703125 7.214843v.761719c0 20.734375 16.867187 37.605469 37.601563 37.605469h35.835937v68.347656h-21.777344c-28.96875 0-51.660156 18.472656-51.660156 42.054688 0 8.390625 6.804687 15.195312 15.195313 15.195312 8.390624 0 15.191406-6.804687 15.191406-15.195312 0-4.757813 8.289062-11.667969 21.273437-11.667969h73.941407c12.984374 0 21.269531 6.910156 21.269531 11.667969 0 8.390625 6.804687 15.195312 15.195312 15.195312s15.191407-6.804687 15.191407-15.195312c0-23.582032-22.691407-42.054688-51.65625-42.054688h-21.777344v-68.347656h35.832031c20.734375 0 37.601563-16.871094 37.601563-37.605469v-.761719c0-2.46875-.246094-4.878906-.703126-7.214843h130.855469v155.984375c0 8.390625 6.800781 15.195312 15.191407 15.195312 8.390624 0 15.195312-6.804687 15.195312-15.195312v-225.875c0-8.390625-6.800781-15.195313-15.195312-15.195313zm-385.761719-128.382812c9.335937 0 16.933593 7.597656 16.933593 16.933593v16.933594h-33.863281v-16.933594c0-9.339843 7.59375-16.933593 16.929688-16.933593zm324.953125 89.894531h25.496094l-5.660157 38.488281h-14.175781zm-231.40625-57.164062c0-18.046876 14.683594-32.730469 32.730468-32.730469h51.023438c18.046875 0 32.730469 14.683593 32.730469 32.730469v95.652343h-116.484375zm-174.203125 126.042968h451.226562v24.308594h-451.226562zm290.6875 61.910156v.761719c0 3.980469-3.234375 7.21875-7.214844 7.21875h-102.054687c-3.976563 0-7.214844-3.238281-7.214844-7.21875v-.761719c0-3.980468 3.238281-7.214843 7.214844-7.214843h102.054687c3.980469 0 7.214844 3.234375 7.214844 7.214843zm0 0"/></svg>