<?xml version="1.0" encoding="iso-8859-1"?>
<!-- Generator: Adobe Illustrator 19.0.0, SVG Export Plug-In . SVG Version: 6.00 Build 0)  -->
<svg version="1.1" id="Capa_1" xmlns="http://www.w3.org/2000/svg" xmlns:xlink="http://www.w3.org/1999/xlink" x="0px" y="0px"
	 viewBox="0 0 429.914 429.914" style="enable-background:new 0 0 429.914 429.914;" xml:space="preserve">
<g>
	<g>
		<path d="M215.001,103.754c-72.9,0-132.1,59.3-132.1,132.1c0,72.8,59.2,132.2,132.1,132.2s132.1-59.3,132.1-132.1
			S287.901,103.754,215.001,103.754z M215.001,348.054c-61.9,0-112.1-50.2-112.1-112.1c0-61.9,50.2-112.1,112.1-112.1
			s112.1,50.2,112.1,112.1C327.101,297.854,276.901,347.954,215.001,348.054z"/>
	</g>
</g>
<g>
	<g>
		<path d="M215.001,145.454c-50,0-90.4,40.5-90.4,90.4s40.5,90.4,90.4,90.4c50,0,90.4-40.5,90.4-90.4
			S264.901,145.554,215.001,145.454z M215.001,306.354c-38.9,0-70.4-31.5-70.4-70.4c0-38.9,31.5-70.4,70.4-70.4
			c38.9,0,70.4,31.5,70.4,70.4C285.401,274.854,253.901,306.354,215.001,306.354z"/>
	</g>
</g>
<g>
	<g>
		<path d="M69.001,55.954c-5.5,0-10,4.5-10,10v46h-9.6l-0.4-46c0-5.5-4.5-10-10-10h-0.1c-5.5,0.1-10,4.6-9.9,10.1l0.3,45.9h-9.3v-46
			c0-5.5-4.5-10-10-10s-10,4.5-10,10v54.2c0,0.3,0,0.6,0,0.9s0,0.6,0,0.9v25.3c-0.1,17.9,11.9,33.7,29.2,38.4l0.3,190.3h20
			l-0.5-190.2c17.7-4.4,30.1-20.4,30.1-38.6v-25.3c0-0.3,0-0.6,0-0.9s0-0.6,0-0.9v-54.1C79.001,60.454,74.501,55.954,69.001,55.954z
			 M59.001,147.054c0,10.8-8.7,19.5-19.5,19.5s-19.5-8.7-19.5-19.5v-15.1h39V147.054z"/>
	</g>
</g>
<g>
	<g>
		<path d="M425.001,45.154c-3.2-1.7-7.1-1.6-10.1,0.4l-50.7,32.8c-2.8,1.9-4.6,5-4.5,8.4l0.3,160.2c0,5.5,4.5,10,10,10h9.4
			l-10.1,118.2c-0.5,5.5,3.6,10.3,9.1,10.8c0.3,0,0.6,0,0.9,0h41c5.4,0,9.7-4.4,9.6-9.8c0-0.1,0-0.2,0-0.2v-322
			C430.101,50.354,428.101,46.954,425.001,45.154z M379.401,92.254l30.5-19.9v164.6h-29.9L379.401,92.254z M410.001,365.954h-19.8
			l9.3-109h10.5V365.954z"/>
	</g>
</g>
<g>
</g>
<g>
</g>
<g>
</g>
<g>
</g>
<g>
</g>
<g>
</g>
<g>
</g>
<g>
</g>
<g>
</g>
<g>
</g>
<g>
</g>
<g>
</g>
<g>
</g>
<g>
</g>
<g>
</g>
</svg>
