<?xml version="1.0"?>
<svg xmlns="http://www.w3.org/2000/svg" id="Layer_6" data-name="Layer 6" viewBox="0 0 32 32" width="512" height="512"><path d="M16,17.07a4.27,4.27,0,1,1,4.27-4.27A4.27,4.27,0,0,1,16,17.07Zm0-6.4a2.13,2.13,0,1,0,2.13,2.13A2.14,2.14,0,0,0,16,10.67Z"/><path d="M22,23.47a1.07,1.07,0,0,1-1-.64,4.27,4.27,0,0,0-3.91-2.56H14.93A4.3,4.3,0,0,0,11,22.83,1.07,1.07,0,0,1,9.06,22a6.43,6.43,0,0,1,5.87-3.83h2.14A6.4,6.4,0,0,1,22.94,22a1.07,1.07,0,0,1-1,1.49Z"/><path d="M30.65,9.58a1.07,1.07,0,0,0-2,.86A13.68,13.68,0,0,1,29.87,16,13.87,13.87,0,1,1,16,2.13a13.73,13.73,0,0,1,7.72,2.35H22.19a1.07,1.07,0,0,0,0,2.13h4.42A1.09,1.09,0,0,0,27.7,5.3L26.64.82a1.07,1.07,0,0,0-2.07.49l.33,1.39A15.85,15.85,0,0,0,16,0,16,16,0,1,0,32,16,15.81,15.81,0,0,0,30.65,9.58Z"/></svg>
