<svg id="Capa_1" enable-background="new 0 0 512.218 512.218" height="512" viewBox="0 0 512.218 512.218" width="512" xmlns="http://www.w3.org/2000/svg"><path d="m498.947 20.585c-36.569-35.196-93.343 5.722-72.422 51.209l-58.032 58.032c-63.032-48.982-161.839-48.942-224.829.07l-58.102-58.102c20.926-45.51-35.881-86.395-72.423-51.208-28.322 28.2-7.706 77.066 31.821 76.798 6.639 0 13.275-1.465 19.388-4.376l56.643 56.643c-69.091 67.694-72.134 187.111-6.208 258.218h-63.385c-26.754 0-48.521 21.767-48.521 48.521s21.767 48.521 48.521 48.521h73.746v-30h-73.746c-10.212 0-18.521-8.308-18.521-18.521s8.309-18.521 18.521-18.521h97.307c192.604 124.662 398.056-120.667 242.475-288.302l56.559-56.559c45.907 20.781 86.238-35.757 51.208-72.423zm-402.078 265.447c37.859-4.944 73.587-21.341 101.949-46.627 7.936 18.149 17.941 35.473 29.882 51.597-36.002 26.613-65.275 62.43-84.054 104.761-28.619-28.069-46.727-66.819-47.777-109.731zm153.938-163.161c-3.516 47.964 12.587 95.845 43.171 132.874-13.922 5.14-27.342 11.436-40.125 18.797-31.203-41.622-48.211-92.502-46.779-144.031 13.85-4.494 28.524-7.139 43.733-7.64zm-63.235 85.749c-23.622 24.588-54.889 41.026-88.501 46.743 8.092-47.718 37.467-88.287 77.995-111.551.734 22.013 4.29 43.789 10.506 64.808zm196.993 60.94c9.667 0 19.735.742 30.53 2.256.968 14.421-.154 29.402-3.098 43.226-85.399-14.131-173.813 38.229-203.947 118.926-13.965-4.43-27.1-10.739-39.112-18.625 35.311-87.643 120.596-145.783 215.627-145.783zm0-30c-20.094 0-39.798 2.313-58.822 6.704-31.403-32.345-48.341-76.858-44.988-121.586 62.569 9.752 113.19 56.049 129.294 116.304-8.796-.941-17.249-1.422-25.484-1.422zm-350.211-176.548c-9.442-9.402-2.568-25.689 10.607-25.6 13.175-.089 20.049 16.201 10.607 25.6-5.849 5.849-15.365 5.85-21.214 0zm221.773 378.377c-6.183 0-12.282-.367-18.284-1.055 26.211-63.927 96.209-105.422 165.033-96.258-24.227 57.134-80.884 97.313-146.749 97.313zm221.607-378.377c-5.849 5.849-15.365 5.85-21.213 0-13.489-14.655 6.566-34.699 21.213-21.214 5.848 5.849 5.848 15.366 0 21.214z"/></svg>